<svg id="Layer_1" data-name="Layer 1" xmlns="http://www.w3.org/2000/svg" viewBox="0 0 523.13 782"><defs><style>.cls-1{fill:#534741;}.cls-2{fill:#c7b299;}.cls-3{fill:#998675;}.cls-4{fill:#fffffa;}.cls-5{fill:#e8d4c7;}.cls-6{fill:#fde5db;}.cls-7{fill:#cdbec2;}.cls-8{fill:#9c5c26;}.cls-9{fill:#ffc52a;}.cls-10{fill:#df8027;}.cls-11{fill:#0d1627;}.cls-12{fill:#b9e4f7;}.cls-13{fill:#736357;}</style></defs><title>balloon</title><g id="_1" data-name="1"><polygon class="cls-1" points="145.2 202.28 187.05 728.18 196.82 725.39 153.57 200.89 145.2 202.28"/><polygon class="cls-1" points="394.41 195.14 347.87 720.64 357.96 719.52 402.89 195.16 394.41 195.14"/><path class="cls-2" d="M284.19,655c-1.13.39.59,118.7,42.67,128s76.49,8,76.49,8l2.37-136Z" transform="translate(-135.14 -9)"/><path class="cls-2" d="M516.08,655c-1.13.39-.59,118.7-42.67,128s-70.07,8-70.07,8l2.37-136Z" transform="translate(-135.14 -9)"/><path class="cls-3" d="M317.15,778.95c18.64,1.77,99.57,19.5,162.79,0C492.75,775,317.15,778.95,317.15,778.95Z" transform="translate(-135.14 -9)"/><path class="cls-3" d="M503.74,671.35l-219-4.74c-5.9-.13-12.18-6.87-14.09-15.2h0c-2-8.59,1.34-15.93,7.52-16.08l233.63-5.4c11.26-.26,18.36,9.61,15.63,21.48h0C524.81,662.79,514.09,671.57,503.74,671.35Z" transform="translate(-135.14 -9)"/><path class="cls-2" d="M278.15,638.86c-24.67,11.78,81.9,9.6,211.26,11.14,53.29.64,26.67-16.72,26.67-16.72Z" transform="translate(-135.14 -9)"/><path class="cls-4" d="M494.54,639.3c-16.23-3.33,6.68-10.41,21.45-5.54,15.1,5,5.76,8.67,5.76,8.67l-27.22-3.13Z" transform="translate(-135.14 -9)"/><path class="cls-4" d="M281.38,640.78c3.57-1.39-2.54-2.94-5.63-1.13s-.59,2.73-.59,2.73l6.22-1.6Z" transform="translate(-135.14 -9)"/><ellipse class="cls-5" cx="261.92" cy="241.34" rx="258.07" ry="234.82"/><path class="cls-6" d="M643,193.15c0,81.3-42.78,194.36-186,193.43-89.35-.58-192.78-71.17-195.29-201.8C259.88,88.06,333.28,18.31,422.63,18.31S643,111.85,643,193.15Z" transform="translate(-135.14 -9)"/><path class="cls-4" d="M495.54,88.87c0,17.41-17.91,40-37,40s-41.23-20.12-41.33-48.1c-.06-17.41,15.51-31.53,34.65-31.53S495.54,71.45,495.54,88.87Z" transform="translate(-135.14 -9)"/><path class="cls-7" d="M251.51,312.19c-31.72-67.85-14.37-151.2,8.37-199.94,25.26-54.14,58.73-70.56,72.59-81.48,4.69-3.69,9.79-7.39,15.19-10.93C228.77,40.81,139,136,139,250.34,139,380,254.53,485.16,397.05,485.16c59.41,0,114.12-18.28,157.74-49C469.13,472.14,307.1,431.08,251.51,312.19Z" transform="translate(-135.14 -9)"/><path class="cls-1" d="M655.58,242.67s1.45.61-1.12-.73c-1.2-12.82-5.9-41.94-24.24-76.58-7.18-13.55-35.31-57.38-74.58-88.91A67.69,67.69,0,0,1,561.89,69s.35-5.35-5.58-4.65c0,0-.68-1.2-7.67,7C505.8,38.68,455.08,18.49,435.53,12.15c0,0-4.45-2.91-8.72-3.14a15.5,15.5,0,0,0-9.42,3.14l.37.14c-25.36,7.88-58.45,29.36-77.67,45.54-9.84-6.93-16.82-12.9-26.27-19.06,19.28-11.23,38.59-20,38.59-20s-2.41-3.65-3.72-3.72c-4.42-.23-9.07,2.32-9.07,2.32s-20,8-33.28,15c-1.82-1.16-1.89-1-3.68-2.16,0,0-8.49-1.86-10.23,4.42,0,0,.88-.48,5.09,2.44a356,356,0,0,0-51.35,33.71C227.31,85.85,211,103.8,198.38,119.89c-4.22-12.74-5.22-15.09-5.22-15.09-5.23-3.14-5.58,5.93-5.58,5.93,1.1,7.69,2.4,9.22,5,16.77a278.68,278.68,0,0,0-21.13,32.27C152,196.49,147.88,227,147,238.49c-2.53,1.12-6.21,3-8.72,4.18,0,0-7.67,9.76.93,11.16,0,0,38.87-19.84,95.09-33.48,44.2-10.72,102-16.32,161.82-18.13,58.5-1.78,127.44,7.31,181.34,21.62,35.24,9.36,56.67,18.49,78.12,27.67C655.58,251.5,661.63,248.48,655.58,242.67ZM559,90.62c26.24,23.41,49.21,51.72,65,81.17,11.74,21.85,19.55,44.32,21.86,65.9-14.23-5.48-35.18-14-61.2-21.52-23.49-6.81-46.55-13.39-80.21-18.13.83-7.42,6.61-38.17,22.55-73.93a229,229,0,0,1,23.34-40.67C553.36,85.81,556.27,88.2,559,90.62ZM428.13,16.42C450.88,25.73,505,48.58,544.45,78.06c-7.32,9.58-16,24-24.49,42.41-8.77,18.94-17.91,39.55-24.11,69.42-8-8.59-42.34-42-78.82-73.93-28.37-24.82-56.27-45.86-66.26-53C387.55,31.56,419.6,19.14,428.13,16.42ZM303.59,42.26c8.22,5.73,20.11,13.21,31.62,21.39-9.07,7.9-33.28,34.28-48.59,57.66A333.4,333.4,0,0,0,248,202.64c-23.63-22.14-38.09-51.52-46.3-73.43C244.77,75,286.23,51.68,303.59,42.26Zm-148,192.61c1.91-22.41,9.86-45.88,22.1-68.66a271.34,271.34,0,0,1,18.42-29.41c12.66,37.28,36.51,62,43.82,70.3C211.29,214.07,180.73,224.72,155.54,234.87Zm100.39-30.56c11.51-32.3,22.19-53.42,33-70.91C299,117.08,323.58,85,341.49,69.23a1069.52,1069.52,0,0,1,86.44,69.55c30.33,27,52.2,49.21,61.66,58.79-9.38-1-21.27-3-31.39-3.72C400.91,190,327.49,189.83,255.93,204.31Z" transform="translate(-135.14 -9)"/><path class="cls-1" d="M248.72,206.46,307.48,699a6.35,6.35,0,0,1,4.17-1.33,8.34,8.34,0,0,1,4.27,1.63L256,205.24Z" transform="translate(-135.14 -9)"/><path class="cls-1" d="M494.86,201.78,479.09,703.92a7.71,7.71,0,0,1,5.09-1.29c3.36.55,4.66,1.69,4.66,1.69l14.45-503Z" transform="translate(-135.14 -9)"/><circle class="cls-8" cx="312.38" cy="695.42" r="16.8" transform="translate(-320.83 109.26) rotate(-16.6)"/><circle class="cls-9" cx="312.6" cy="695.35" r="13.78" transform="translate(-320.81 109.33) rotate(-16.6)"/><path class="cls-10" d="M300.27,689.3a13.73,13.73,0,0,0,24.15,13.05Z" transform="translate(-135.14 -9)"/><circle class="cls-11" cx="312.77" cy="694.91" r="8.53" transform="translate(-320.67 109.35) rotate(-16.6)"/><path class="cls-12" d="M307.26,697c1.56.21,3.18-1.51,3.86-3.33a6.16,6.16,0,0,0,.18-3.45c-.16-.55-2.08-.52-3.39,1.25S305.86,696.85,307.26,697Z" transform="translate(-135.14 -9)"/><circle class="cls-8" cx="481.75" cy="697.24" r="16.8" transform="translate(-314.29 157.73) rotate(-16.6)"/><circle class="cls-9" cx="481.98" cy="697.17" r="13.78" transform="matrix(0.96, -0.29, 0.29, 0.96, -314.25, 157.79)"/><path class="cls-10" d="M469.64,691.13a13.73,13.73,0,0,0,24.15,13.05Z" transform="translate(-135.14 -9)"/><circle class="cls-11" cx="481.93" cy="696.21" r="8.53" transform="translate(-313.99 157.74) rotate(-16.6)"/><path class="cls-12" d="M476.63,698.86c1.56.21,3.18-1.51,3.86-3.33a6.16,6.16,0,0,0,.18-3.45c-.16-.55-2.08-.52-3.39,1.25S475.23,698.67,476.63,698.86Z" transform="translate(-135.14 -9)"/><path class="cls-1" d="M258,210.82c1.18.53,50,68.38,104.62,131.82,48.66,56.57,101.13,110.2,127.64,134.61,0,0,6.28,10-4.18,10.46-3.62.16-64.87-57.89-131.82-137.4-47.18-56-93.57-113.78-101.83-132.52C252.44,217.79,245.88,205.43,258,210.82Z" transform="translate(-135.14 -9)"/><path class="cls-1" d="M308.42,503.36q.18-2.65.41-5.29c-.11,2,.6-3.57.93-6.06,21.23.54,163-2.44,200.72-5.38-.87,4.08-1.8,8.21-2.74,12.38C507.74,499,330.28,503.78,308.42,503.36Z" transform="translate(-135.14 -9)"/><path class="cls-1" d="M283.13,477.26c.27-1.27,53.68-57.95,104.5-124.44,45.31-59.29,87-121.7,105.38-152.67,0,0,8.49-8.2,11.1,1.94.9,3.51-43.26,75.42-107.24,157.34-45.09,57.73-92,115-108.65,127C288.21,486.41,280.36,490.24,283.13,477.26Z" transform="translate(-135.14 -9)"/></g><path class="cls-13" d="M457.41,698.87c-20.89,32.24-45.26,56.25-55.3,64.77-12.28,10.42,15.4-11.59,28.05-25S457.41,698.87,457.41,698.87Z" transform="translate(-135.14 -9)"/><path class="cls-13" d="M424,683.71c-29.11,38.19-61.78,65.78-75.11,75.44-16.31,11.82,20.29-13,37.35-28.47S424,683.71,424,683.71Z" transform="translate(-135.14 -9)"/><path class="cls-13" d="M469.2,732.61a104.93,104.93,0,0,1-18,21c-4,3.39,5-3.77,9.12-8.12S469.2,732.61,469.2,732.61Z" transform="translate(-135.14 -9)"/><path class="cls-13" d="M342.94,696.82c20.89,32.24,45.26,56.25,55.3,64.77,12.28,10.42-15.4-11.59-28.05-25S342.94,696.82,342.94,696.82Z" transform="translate(-135.14 -9)"/><path class="cls-13" d="M376.31,681.65c29.11,38.19,61.78,65.78,75.11,75.44,16.31,11.82-20.29-13-37.35-28.47S376.31,681.65,376.31,681.65Z" transform="translate(-135.14 -9)"/><path class="cls-13" d="M331.15,730.56a104.93,104.93,0,0,0,18,21c4,3.39-5-3.77-9.12-8.12S331.15,730.56,331.15,730.56Z" transform="translate(-135.14 -9)"/></svg>